# Blender 5.0.1
# www.blender.org
mtllib debug_cat.mtl
o Cube
v 1.000000 2.000000 -1.000000
v 1.000000 -2.000000 -1.000000
v 1.000000 2.000000 1.000000
v 1.000000 -2.000000 1.000000
v -1.000000 2.000000 -1.000000
v -1.000000 -2.000000 -1.000000
v -1.000000 2.000000 1.000000
v -1.000000 -2.000000 1.000000
vn -0.0000 1.0000 -0.0000
vn -0.0000 -0.0000 1.0000
vn -1.0000 -0.0000 -0.0000
vn -0.0000 -1.0000 -0.0000
vn 1.0000 -0.0000 -0.0000
vn -0.0000 -0.0000 -1.0000
vt 0.625000 0.500000
vt 0.875000 0.500000
vt 0.875000 0.750000
vt 0.625000 0.750000
vt 0.375000 0.750000
vt 0.625000 1.000000
vt 0.375000 1.000000
vt 0.375000 0.000000
vt 0.625000 0.000000
vt 0.625000 0.250000
vt 0.375000 0.250000
vt 0.125000 0.500000
vt 0.375000 0.500000
vt 0.125000 0.750000
s 0
usemtl Material
f 1/1/1 5/2/1 7/3/1 3/4/1
f 4/5/2 3/4/2 7/6/2 8/7/2
f 8/8/3 7/9/3 5/10/3 6/11/3
f 6/12/4 2/13/4 4/5/4 8/14/4
f 2/13/5 1/1/5 3/4/5 4/5/5
f 6/11/6 5/10/6 1/1/6 2/13/6
o Cube.001
v 0.331652 1.991089 0.050519
v 0.602916 2.533618 0.050519
v 0.331652 1.991089 -0.050519
v 0.602916 2.533618 -0.050519
v 0.874180 1.991089 0.050519
v 0.874180 1.991089 -0.050519
vn -0.8944 0.4472 -0.0000
vn -0.0000 -0.0000 -1.0000
vn 0.8944 0.4472 -0.0000
vn -0.0000 -0.0000 1.0000
vn -0.0000 -1.0000 -0.0000
vt 0.375000 0.000000
vt 0.625000 0.000000
vt 0.625000 0.250000
vt 0.375000 0.250000
vt 0.625000 0.500000
vt 0.375000 0.500000
vt 0.625000 0.750000
vt 0.375000 0.750000
vt 0.625000 1.000000
vt 0.375000 1.000000
vt 0.125000 0.500000
vt 0.125000 0.750000
s 0
f 9/15/7 10/16/7 12/17/7 11/18/7
f 11/18/8 12/19/8 14/20/8
f 14/20/9 12/19/9 10/21/9 13/22/9
f 13/22/10 10/23/10 9/24/10
f 11/25/11 14/20/11 13/22/11 9/26/11
o Cube.002
v -0.886615 1.991089 0.050519
v -0.615351 2.533618 0.050519
v -0.886615 1.991089 -0.050519
v -0.615351 2.533618 -0.050519
v -0.344087 1.991089 0.050519
v -0.344087 1.991089 -0.050519
vn -0.8944 0.4472 -0.0000
vn -0.0000 -0.0000 -1.0000
vn 0.8944 0.4472 -0.0000
vn -0.0000 -0.0000 1.0000
vn -0.0000 -1.0000 -0.0000
vt 0.375000 0.000000
vt 0.625000 0.000000
vt 0.625000 0.250000
vt 0.375000 0.250000
vt 0.625000 0.500000
vt 0.375000 0.500000
vt 0.625000 0.750000
vt 0.375000 0.750000
vt 0.625000 1.000000
vt 0.375000 1.000000
vt 0.125000 0.500000
vt 0.125000 0.750000
s 0
f 15/27/12 16/28/12 18/29/12 17/30/12
f 17/30/13 18/31/13 20/32/13
f 20/32/14 18/31/14 16/33/14 19/34/14
f 19/34/15 16/35/15 15/36/15
f 17/37/16 20/32/16 19/34/16 15/38/16
